<mxfile host="app.diagrams.net" agent="Mozilla/5.0 (Windows NT 10.0; Win64; x64) AppleWebKit/537.36 (KHTML, like Gecko) Chrome/140.0.0.0 Safari/537.36" version="27.0.2">
  <diagram name="Page-1" id="SNeRq63fYHzzdsMwx5qX">
    <mxGraphModel dx="2084" dy="1054" grid="1" gridSize="10" guides="1" tooltips="1" connect="1" arrows="1" fold="1" page="1" pageScale="1" pageWidth="827" pageHeight="1169" math="0" shadow="0">
      <root>
        <mxCell id="0" />
        <mxCell id="1" parent="0" />
        <mxCell id="0Uv7fwzZN-e3jFh-VrJm-1" value="Óra" style="ellipse;whiteSpace=wrap;html=1;" vertex="1" parent="1">
          <mxGeometry x="338.75" y="90" width="120" height="80" as="geometry" />
        </mxCell>
        <mxCell id="0Uv7fwzZN-e3jFh-VrJm-2" value="típus" style="rhombus;whiteSpace=wrap;html=1;" vertex="1" parent="1">
          <mxGeometry x="650" y="120" width="80" height="80" as="geometry" />
        </mxCell>
        <mxCell id="0Uv7fwzZN-e3jFh-VrJm-3" value="id" style="rhombus;whiteSpace=wrap;html=1;" vertex="1" parent="1">
          <mxGeometry x="70" y="120" width="80" height="80" as="geometry" />
        </mxCell>
        <mxCell id="0Uv7fwzZN-e3jFh-VrJm-6" value="" style="ellipse;whiteSpace=wrap;html=1;fillOpacity=0;" vertex="1" parent="1">
          <mxGeometry x="327.5" y="82.5" width="142.5" height="95" as="geometry" />
        </mxCell>
        <mxCell id="0Uv7fwzZN-e3jFh-VrJm-11" value="targy" style="ellipse;whiteSpace=wrap;html=1;" vertex="1" parent="1">
          <mxGeometry x="50" y="390" width="120" height="80" as="geometry" />
        </mxCell>
        <mxCell id="0Uv7fwzZN-e3jFh-VrJm-12" value="idopont" style="ellipse;whiteSpace=wrap;html=1;" vertex="1" parent="1">
          <mxGeometry x="210" y="390" width="120" height="80" as="geometry" />
        </mxCell>
        <mxCell id="0Uv7fwzZN-e3jFh-VrJm-13" value="helyszin" style="ellipse;whiteSpace=wrap;html=1;" vertex="1" parent="1">
          <mxGeometry x="360" y="390" width="120" height="80" as="geometry" />
        </mxCell>
        <mxCell id="0Uv7fwzZN-e3jFh-VrJm-14" value="oktato" style="ellipse;whiteSpace=wrap;html=1;" vertex="1" parent="1">
          <mxGeometry x="500" y="390" width="120" height="80" as="geometry" />
        </mxCell>
        <mxCell id="0Uv7fwzZN-e3jFh-VrJm-15" value="szak" style="ellipse;whiteSpace=wrap;html=1;" vertex="1" parent="1">
          <mxGeometry x="640" y="390" width="120" height="80" as="geometry" />
        </mxCell>
        <mxCell id="0Uv7fwzZN-e3jFh-VrJm-17" value="" style="rounded=0;whiteSpace=wrap;html=1;" vertex="1" parent="1">
          <mxGeometry x="75" y="510" width="70" height="105" as="geometry" />
        </mxCell>
        <mxCell id="0Uv7fwzZN-e3jFh-VrJm-18" value="" style="rounded=0;whiteSpace=wrap;html=1;" vertex="1" parent="1">
          <mxGeometry x="385" y="510" width="70" height="105" as="geometry" />
        </mxCell>
        <mxCell id="0Uv7fwzZN-e3jFh-VrJm-19" value="" style="rounded=0;whiteSpace=wrap;html=1;" vertex="1" parent="1">
          <mxGeometry x="525" y="510" width="70" height="105" as="geometry" />
        </mxCell>
        <mxCell id="0Uv7fwzZN-e3jFh-VrJm-20" value="" style="rounded=0;whiteSpace=wrap;html=1;" vertex="1" parent="1">
          <mxGeometry x="665" y="510" width="70" height="105" as="geometry" />
        </mxCell>
        <mxCell id="0Uv7fwzZN-e3jFh-VrJm-21" value="nap" style="ellipse;whiteSpace=wrap;html=1;" vertex="1" parent="1">
          <mxGeometry x="75" y="680" width="120" height="80" as="geometry" />
        </mxCell>
        <mxCell id="0Uv7fwzZN-e3jFh-VrJm-22" value="tól" style="ellipse;whiteSpace=wrap;html=1;" vertex="1" parent="1">
          <mxGeometry x="210" y="680" width="120" height="80" as="geometry" />
        </mxCell>
        <mxCell id="0Uv7fwzZN-e3jFh-VrJm-23" value="ig" style="ellipse;whiteSpace=wrap;html=1;" vertex="1" parent="1">
          <mxGeometry x="350" y="680" width="120" height="80" as="geometry" />
        </mxCell>
        <mxCell id="0Uv7fwzZN-e3jFh-VrJm-25" value="" style="endArrow=none;html=1;rounded=0;entryX=0;entryY=1;entryDx=0;entryDy=0;exitX=0.5;exitY=0;exitDx=0;exitDy=0;" edge="1" parent="1" source="0Uv7fwzZN-e3jFh-VrJm-11" target="0Uv7fwzZN-e3jFh-VrJm-6">
          <mxGeometry width="50" height="50" relative="1" as="geometry">
            <mxPoint x="230" y="290" as="sourcePoint" />
            <mxPoint x="280" y="240" as="targetPoint" />
          </mxGeometry>
        </mxCell>
        <mxCell id="0Uv7fwzZN-e3jFh-VrJm-26" value="" style="endArrow=none;html=1;rounded=0;entryX=0.5;entryY=1;entryDx=0;entryDy=0;exitX=0.5;exitY=0;exitDx=0;exitDy=0;" edge="1" parent="1" source="0Uv7fwzZN-e3jFh-VrJm-12" target="0Uv7fwzZN-e3jFh-VrJm-6">
          <mxGeometry width="50" height="50" relative="1" as="geometry">
            <mxPoint x="380" y="320" as="sourcePoint" />
            <mxPoint x="430" y="270" as="targetPoint" />
          </mxGeometry>
        </mxCell>
        <mxCell id="0Uv7fwzZN-e3jFh-VrJm-27" value="" style="endArrow=none;html=1;rounded=0;entryX=0.5;entryY=1;entryDx=0;entryDy=0;exitX=0.5;exitY=0;exitDx=0;exitDy=0;" edge="1" parent="1" source="0Uv7fwzZN-e3jFh-VrJm-13" target="0Uv7fwzZN-e3jFh-VrJm-6">
          <mxGeometry width="50" height="50" relative="1" as="geometry">
            <mxPoint x="440" y="340" as="sourcePoint" />
            <mxPoint x="490" y="290" as="targetPoint" />
          </mxGeometry>
        </mxCell>
        <mxCell id="0Uv7fwzZN-e3jFh-VrJm-28" value="" style="endArrow=none;html=1;rounded=0;exitX=0.5;exitY=1;exitDx=0;exitDy=0;entryX=0.5;entryY=0;entryDx=0;entryDy=0;" edge="1" parent="1" source="0Uv7fwzZN-e3jFh-VrJm-6" target="0Uv7fwzZN-e3jFh-VrJm-14">
          <mxGeometry width="50" height="50" relative="1" as="geometry">
            <mxPoint x="490" y="330" as="sourcePoint" />
            <mxPoint x="540" y="280" as="targetPoint" />
          </mxGeometry>
        </mxCell>
        <mxCell id="0Uv7fwzZN-e3jFh-VrJm-29" value="" style="endArrow=none;html=1;rounded=0;exitX=1;exitY=1;exitDx=0;exitDy=0;entryX=0.5;entryY=0;entryDx=0;entryDy=0;" edge="1" parent="1" source="0Uv7fwzZN-e3jFh-VrJm-6" target="0Uv7fwzZN-e3jFh-VrJm-15">
          <mxGeometry width="50" height="50" relative="1" as="geometry">
            <mxPoint x="660" y="310" as="sourcePoint" />
            <mxPoint x="710" y="260" as="targetPoint" />
          </mxGeometry>
        </mxCell>
        <mxCell id="0Uv7fwzZN-e3jFh-VrJm-30" value="" style="endArrow=none;html=1;rounded=0;entryX=1;entryY=0.5;entryDx=0;entryDy=0;" edge="1" parent="1" source="0Uv7fwzZN-e3jFh-VrJm-2" target="0Uv7fwzZN-e3jFh-VrJm-6">
          <mxGeometry width="50" height="50" relative="1" as="geometry">
            <mxPoint x="610" y="300" as="sourcePoint" />
            <mxPoint x="660" y="250" as="targetPoint" />
          </mxGeometry>
        </mxCell>
        <mxCell id="0Uv7fwzZN-e3jFh-VrJm-31" value="" style="endArrow=none;html=1;rounded=0;exitX=1;exitY=0.5;exitDx=0;exitDy=0;entryX=0;entryY=0.5;entryDx=0;entryDy=0;" edge="1" parent="1" source="0Uv7fwzZN-e3jFh-VrJm-3" target="0Uv7fwzZN-e3jFh-VrJm-6">
          <mxGeometry width="50" height="50" relative="1" as="geometry">
            <mxPoint x="220" y="180" as="sourcePoint" />
            <mxPoint x="270" y="130" as="targetPoint" />
          </mxGeometry>
        </mxCell>
        <mxCell id="0Uv7fwzZN-e3jFh-VrJm-32" value="" style="endArrow=none;html=1;rounded=0;exitX=0.5;exitY=0;exitDx=0;exitDy=0;entryX=0.5;entryY=1;entryDx=0;entryDy=0;" edge="1" parent="1" source="0Uv7fwzZN-e3jFh-VrJm-17" target="0Uv7fwzZN-e3jFh-VrJm-11">
          <mxGeometry width="50" height="50" relative="1" as="geometry">
            <mxPoint x="240" y="640" as="sourcePoint" />
            <mxPoint x="290" y="590" as="targetPoint" />
          </mxGeometry>
        </mxCell>
        <mxCell id="0Uv7fwzZN-e3jFh-VrJm-33" value="" style="endArrow=none;html=1;rounded=0;entryX=0.5;entryY=1;entryDx=0;entryDy=0;" edge="1" parent="1" source="0Uv7fwzZN-e3jFh-VrJm-18" target="0Uv7fwzZN-e3jFh-VrJm-13">
          <mxGeometry width="50" height="50" relative="1" as="geometry">
            <mxPoint x="120" y="520" as="sourcePoint" />
            <mxPoint x="120" y="480" as="targetPoint" />
          </mxGeometry>
        </mxCell>
        <mxCell id="0Uv7fwzZN-e3jFh-VrJm-34" value="" style="endArrow=none;html=1;rounded=0;exitX=0.5;exitY=0;exitDx=0;exitDy=0;entryX=0.5;entryY=1;entryDx=0;entryDy=0;" edge="1" parent="1" source="0Uv7fwzZN-e3jFh-VrJm-19" target="0Uv7fwzZN-e3jFh-VrJm-14">
          <mxGeometry width="50" height="50" relative="1" as="geometry">
            <mxPoint x="130" y="530" as="sourcePoint" />
            <mxPoint x="130" y="490" as="targetPoint" />
          </mxGeometry>
        </mxCell>
        <mxCell id="0Uv7fwzZN-e3jFh-VrJm-35" value="" style="endArrow=none;html=1;rounded=0;exitX=0.5;exitY=0;exitDx=0;exitDy=0;entryX=0.5;entryY=1;entryDx=0;entryDy=0;" edge="1" parent="1" source="0Uv7fwzZN-e3jFh-VrJm-20" target="0Uv7fwzZN-e3jFh-VrJm-15">
          <mxGeometry width="50" height="50" relative="1" as="geometry">
            <mxPoint x="140" y="540" as="sourcePoint" />
            <mxPoint x="140" y="500" as="targetPoint" />
          </mxGeometry>
        </mxCell>
        <mxCell id="0Uv7fwzZN-e3jFh-VrJm-36" value="" style="endArrow=none;html=1;rounded=0;exitX=0.5;exitY=0;exitDx=0;exitDy=0;entryX=0.5;entryY=1;entryDx=0;entryDy=0;" edge="1" parent="1" source="0Uv7fwzZN-e3jFh-VrJm-21" target="0Uv7fwzZN-e3jFh-VrJm-12">
          <mxGeometry width="50" height="50" relative="1" as="geometry">
            <mxPoint x="610" y="730" as="sourcePoint" />
            <mxPoint x="660" y="680" as="targetPoint" />
          </mxGeometry>
        </mxCell>
        <mxCell id="0Uv7fwzZN-e3jFh-VrJm-37" value="" style="endArrow=none;html=1;rounded=0;exitX=0.5;exitY=0;exitDx=0;exitDy=0;entryX=0.5;entryY=1;entryDx=0;entryDy=0;" edge="1" parent="1" source="0Uv7fwzZN-e3jFh-VrJm-22" target="0Uv7fwzZN-e3jFh-VrJm-12">
          <mxGeometry width="50" height="50" relative="1" as="geometry">
            <mxPoint x="150" y="550" as="sourcePoint" />
            <mxPoint x="150" y="510" as="targetPoint" />
          </mxGeometry>
        </mxCell>
        <mxCell id="0Uv7fwzZN-e3jFh-VrJm-38" value="" style="endArrow=none;html=1;rounded=0;exitX=0.5;exitY=0;exitDx=0;exitDy=0;entryX=0.5;entryY=1;entryDx=0;entryDy=0;" edge="1" parent="1" source="0Uv7fwzZN-e3jFh-VrJm-23" target="0Uv7fwzZN-e3jFh-VrJm-12">
          <mxGeometry width="50" height="50" relative="1" as="geometry">
            <mxPoint x="160" y="560" as="sourcePoint" />
            <mxPoint x="160" y="520" as="targetPoint" />
          </mxGeometry>
        </mxCell>
      </root>
    </mxGraphModel>
  </diagram>
</mxfile>
